<svg xmlns="http://www.w3.org/2000/svg" viewBox="0 0 64 64" fill="none">
    <!-- Ghost body -->
    <path d="M16 56 L16 28 Q16 12 32 12 Q48 12 48 28 L48 56 Q44 52 40 56 Q36 52 32 56 Q28 52 24 56 Q20 52 16 56"
        fill="white" />
    <!-- Ghost shadow/outline -->
    <path d="M16 56 L16 28 Q16 12 32 12 Q48 12 48 28 L48 56 Q44 52 40 56 Q36 52 32 56 Q28 52 24 56 Q20 52 16 56"
        stroke="#E0E0E0" stroke-width="2" fill="none" />
    <!-- Eyes -->
    <ellipse cx="26" cy="28" rx="5" ry="6" fill="#1a1a1a" />
    <ellipse cx="38" cy="28" rx="5" ry="6" fill="#1a1a1a" />
    <!-- Eye highlights -->
    <circle cx="24" cy="26" r="2" fill="white" />
    <circle cx="36" cy="26" r="2" fill="white" />
    <!-- Mouth -->
    <ellipse cx="32" cy="40" rx="4" ry="5" fill="#1a1a1a" />
    <!-- Blush -->
    <circle cx="20" cy="36" r="3" fill="#FFCDD2" opacity="0.6" />
    <circle cx="44" cy="36" r="3" fill="#FFCDD2" opacity="0.6" />
</svg>
