<svg xmlns="http://www.w3.org/2000/svg" viewBox="0 0 200 60" fill="none">
    <!-- Heart symbol -->
    <path d="M20 30 Q8 18 8 12 Q8 4 14 4 Q20 4 20 12 Q20 4 26 4 Q32 4 32 12 Q32 18 20 30" fill="#E91E63" />
    <ellipse cx="14" cy="10" rx="2" ry="2.5" fill="white" opacity="0.4" />
    <!-- Text -->
    <text x="42" y="42" font-family="Georgia, serif" font-size="30" font-weight="bold" fill="#E91E63">Valentine</text>
    <!-- Decorations -->
    <circle cx="170" cy="22" r="4" fill="#F48FB1" />
    <path d="M180 35 Q175 30 175 26 Q175 22 178 22 Q180 22 180 26 Q180 22 182 22 Q185 22 185 26 Q185 30 180 35"
        fill="#E91E63" />
</svg>
